<?xml version="1.0" encoding="utf-8"?>
<!-- Generator: Adobe Illustrator 21.0.2, SVG Export Plug-In . SVG Version: 6.00 Build 0)  -->
<svg version="1.1" id="Layer_1" xmlns="http://www.w3.org/2000/svg" xmlns:xlink="http://www.w3.org/1999/xlink" x="0px" y="0px"
	 width="150px" height="150px" viewBox="0 0 150 150" style="enable-background:new 0 0 150 150;" xml:space="preserve">
<style type="text/css">
	.st0{fill:#FFFFFF;}
</style>
<g>
	<path d="M135.57,92.73c0,7.33,0.19,14.67-0.05,21.99c-0.27,7.95-1.87,15.59-7.55,21.7c-3.28,3.53-7.47,5.49-12.12,6.56
		c-2.12,0.49-3.71-0.44-4.67-2.1c-2.12-3.67-4.02-7.46-6-11.2c-1.87-3.53-3.53-7.18-5.66-10.54c-1.86-2.94-3.6-2.98-5.59-0.1
		c-2.88,4.17-5.34,8.63-8.07,12.91c-1.88,2.94-3.69,5.98-5.95,8.61c-3.72,4.32-7.85,4.25-11.32-0.27c-2.62-3.41-4.73-7.23-7-10.91
		c-1.92-3.12-3.59-6.39-5.64-9.42c-2.74-4.07-4.64-4.03-7.04,0.32c-2.81,5.1-5.25,10.4-7.84,15.62c-0.07,0.15-0.13,0.31-0.2,0.46
		c-3.76,7.55-6.19,8.32-13.74,4.45c-7.86-4.03-11.28-11.01-12.68-19.24c-0.5-2.94-0.84-5.96-0.83-8.94
		c0.03-14.66-0.55-29.37,0.49-43.96c1.69-23.81,12.23-43.03,33.47-54.97c22.72-12.78,50.79-7.8,68.59,11.32
		c12.99,13.96,19.15,30.57,19.39,49.5C135.63,80.57,135.57,86.65,135.57,92.73z M16.18,92.5c0.16,0.01,0.32,0.02,0.48,0.03
		c0,5.92-0.17,11.84,0.06,17.75c0.17,4.39,0.52,8.83,1.36,13.13c1.38,7.01,5.18,12.38,11.98,15.26c4.57,1.93,5.07,1.76,7.39-2.54
		c0.59-1.1,1.08-2.25,1.65-3.36c2.72-5.24,5.11-10.69,8.3-15.63c3.01-4.66,6.93-4.55,10.28-0.05c2.32,3.12,4.11,6.64,6.19,9.95
		c2.43,3.87,4.71,7.86,7.43,11.52c1.98,2.65,3.84,2.67,6,0.17c2.21-2.56,4-5.5,5.85-8.35c2.94-4.53,5.52-9.33,8.74-13.65
		c3.08-4.14,6.84-4.04,9.82,0.19c2.33,3.31,4.06,7.05,5.95,10.66c1.74,3.32,3.31,6.72,4.98,10.07c1,2.01,2.35,2.58,4.65,1.76
		c6.11-2.18,10.71-5.99,12.63-12.21c1.31-4.25,2.31-8.77,2.41-13.19c0.3-13.49,0.35-27,0.04-40.49
		c-0.43-19.06-6.83-35.82-21.14-48.81C95.37,10.33,76.87,5.58,56.56,13.09C34.32,21.32,22.31,38.74,18.19,61.4
		C16.34,71.55,16.78,82.12,16.18,92.5z"/>
	<path class="st0" d="M16.18,92.5c0.6-10.38,0.17-20.95,2.01-31.1c4.12-22.66,16.13-40.08,38.37-48.31
		c20.31-7.51,38.81-2.76,54.66,11.62c14.31,12.99,20.71,29.75,21.14,48.81c0.3,13.49,0.26,27-0.04,40.49
		c-0.1,4.42-1.1,8.94-2.41,13.19c-1.91,6.22-6.52,10.02-12.63,12.21c-2.3,0.82-3.65,0.24-4.65-1.76c-1.67-3.35-3.24-6.76-4.98-10.07
		c-1.89-3.61-3.62-7.35-5.95-10.66c-2.99-4.23-6.74-4.33-9.82-0.19c-3.21,4.33-5.79,9.12-8.74,13.65c-1.85,2.85-3.64,5.79-5.85,8.35
		c-2.16,2.51-4.02,2.49-6-0.17c-2.73-3.66-5.01-7.65-7.43-11.52c-2.08-3.31-3.87-6.83-6.19-9.95c-3.35-4.5-7.27-4.61-10.28,0.05
		c-3.19,4.94-5.57,10.39-8.3,15.63c-0.58,1.11-1.06,2.26-1.65,3.36c-2.32,4.3-2.81,4.47-7.39,2.54c-6.8-2.87-10.6-8.25-11.98-15.26
		c-0.85-4.3-1.2-8.74-1.36-13.13c-0.22-5.91-0.06-11.83-0.06-17.75C16.5,92.52,16.34,92.51,16.18,92.5z M125.36,49.78
		c0.05-5.54-4.52-10.21-10.06-10.28c-5.58-0.07-10.24,4.45-10.32,10c-0.08,5.69,4.52,10.41,10.16,10.43
		C120.67,59.94,125.31,55.33,125.36,49.78z M79.89,49.58c-0.04,5.61,4.43,10.25,9.98,10.35c5.42,0.1,9.76-4.37,9.82-10.11
		c0.06-5.75-4.15-10.28-9.59-10.32C84.52,39.45,79.93,43.99,79.89,49.58z"/>
	<path d="M125.36,49.78c-0.05,5.56-4.69,10.17-10.21,10.15c-5.64-0.02-10.24-4.75-10.16-10.43c0.08-5.55,4.74-10.07,10.32-10
		C120.84,39.56,125.41,44.24,125.36,49.78z M123.11,52.64c1.32-4.32,0.02-8-3.19-10.15c-3.17-2.11-7.38-1.89-10.23,0.55
		c-3.04,2.6-3.98,6.62-2.38,10.18c1.56,3.46,4.9,5.4,8.82,4.88c-2.93-1.58-4.55-3.72-3.62-6.97c0.63-2.23,2.26-3.52,4.55-3.68
		C120.33,47.22,122.05,49.19,123.11,52.64z"/>
	<path d="M79.89,49.58c0.04-5.59,4.63-10.12,10.22-10.08c5.44,0.04,9.65,4.57,9.59,10.32c-0.06,5.73-4.41,10.21-9.82,10.11
		C84.32,59.82,79.85,55.19,79.89,49.58z M97.83,51.62c0.61-4.78-1.08-8.27-4.37-9.82c-3.24-1.54-7.22-0.68-9.78,2.1
		c-2.58,2.8-3,6.86-1.06,10.18c1.75,2.99,5.01,4.61,8.14,3.86c-2.77-1.4-4.29-3.42-3.61-6.48c0.47-2.14,1.93-3.49,4.06-3.93
		C94.3,46.9,96.2,48.61,97.83,51.62z"/>
	<path class="st0" d="M123.11,52.64c-1.07-3.45-2.79-5.42-6.06-5.19c-2.29,0.16-3.91,1.45-4.55,3.68c-0.93,3.25,0.69,5.39,3.62,6.97
		c-3.91,0.52-7.26-1.41-8.82-4.88c-1.6-3.56-0.66-7.57,2.38-10.18c2.85-2.43,7.06-2.66,10.23-0.55
		C123.14,44.64,124.43,48.32,123.11,52.64z"/>
	<path class="st0" d="M97.83,51.62c-1.63-3.01-3.53-4.73-6.61-4.09c-2.13,0.44-3.59,1.79-4.06,3.93c-0.68,3.06,0.85,5.08,3.61,6.48
		c-3.13,0.75-6.39-0.87-8.14-3.86c-1.94-3.32-1.52-7.37,1.06-10.18c2.56-2.79,6.54-3.64,9.78-2.1
		C96.75,43.36,98.44,46.84,97.83,51.62z"/>
</g>
</svg>
